<svg width="77" height="100" viewBox="0 0 77 100" fill="none" xmlns="http://www.w3.org/2000/svg">
<g clip-path="url(#clip0_662_3322)">
<path d="M71.0029 92.6273H29.129C28.6982 92.6276 28.285 92.4569 27.9801 92.1527C27.6752 91.8485 27.5035 91.4356 27.5029 91.0049C27.503 90.7915 27.5452 90.5803 27.627 90.3832C27.7088 90.1861 27.8287 90.0071 27.9797 89.8564C28.1307 89.7056 28.3099 89.5861 28.5071 89.5046C28.7043 89.423 28.9156 89.3812 29.129 89.3813H71.0029C71.6058 89.3813 72.1841 89.1421 72.6108 88.7161C73.0374 88.2901 73.2777 87.7123 73.2787 87.1093V5.51792C73.2773 4.9151 73.037 4.33741 72.6104 3.91151C72.1838 3.4856 71.6057 3.24624 71.0029 3.24591H26.5893C25.9865 3.24624 25.4084 3.4856 24.9818 3.91151C24.5551 4.33741 24.3148 4.9151 24.3135 5.51792V51.1618C24.3128 51.5925 24.1412 52.0053 23.8363 52.3095C23.5314 52.6137 23.1181 52.7844 22.6874 52.7841C22.474 52.7844 22.2627 52.7427 22.0654 52.6614C21.8682 52.58 21.6888 52.4606 21.5377 52.31C21.3866 52.1593 21.2667 51.9804 21.1847 51.7834C21.1027 51.5864 21.0604 51.3751 21.0601 51.1618V5.51541C21.0637 4.05136 21.6479 2.64853 22.6844 1.61459C23.7209 0.58064 25.1252 -4.57514e-06 26.5893 0H71.0054C72.4694 -4.57514e-06 73.8737 0.58064 74.9103 1.61459C75.9468 2.64853 76.531 4.05136 76.5346 5.51541V87.1081C76.532 88.5732 75.9479 89.9774 74.9107 91.0122C73.8735 92.0471 72.468 92.6279 71.0029 92.6273V92.6273Z" fill="#0e4f9d"/>
<path d="M54.3461 11.0849H42.031L41.9304 11.0723C35.5215 10.2718 34.706 2.65277 34.6746 2.3273L37.9117 2.0056C38.0477 3.02677 38.3383 4.02128 38.7737 4.95494C39.0498 5.69573 39.5152 6.35124 40.1235 6.85615C40.7318 7.36107 41.4618 7.69775 42.2408 7.83266H54.3498C55.4208 7.79054 56.4409 7.36458 57.2238 6.63257C57.7491 6.02147 58.1477 5.31207 58.3964 4.54558C58.6452 3.77909 58.7391 2.97081 58.6727 2.16771H61.9249C62.0032 3.4128 61.8251 4.66071 61.4016 5.83421C60.9782 7.0077 60.3184 8.0818 59.4631 8.99003C58.0808 10.3034 56.2563 11.0509 54.3498 11.0849H54.3461Z" fill="#0e4f9d"/>
<path d="M62.7733 75.5457H35.6537C35.2224 75.5457 34.8088 75.3744 34.5039 75.0694C34.1989 74.7645 34.0276 74.3509 34.0276 73.9196C34.0276 73.4883 34.1989 73.0747 34.5039 72.7698C34.8088 72.4648 35.2224 72.2935 35.6537 72.2935H62.7733C63.2627 72.2928 63.7319 72.0981 64.0779 71.7521C64.424 71.406 64.6187 70.9369 64.6193 70.4475V68.3187C64.6187 67.8293 64.424 67.3602 64.0779 67.0141C63.7319 66.6681 63.2627 66.4734 62.7733 66.4727H40.7921C40.3608 66.4727 39.9472 66.3014 39.6423 65.9965C39.3373 65.6915 39.166 65.2779 39.166 64.8466C39.166 64.6331 39.2081 64.4218 39.2898 64.2245C39.3715 64.0273 39.4914 63.8481 39.6424 63.6972C39.7934 63.5464 39.9726 63.4267 40.1699 63.3451C40.3672 63.2635 40.5786 63.2216 40.7921 63.2218H62.7733C64.1268 63.2218 65.4248 63.7594 66.3819 64.7165C67.3389 65.6735 67.8766 66.9716 67.8766 68.325V70.4475C67.8752 71.8001 67.337 73.0968 66.3801 74.0528C65.4232 75.0087 64.1259 75.5457 62.7733 75.5457Z" fill="#0e4f9d"/>
<path d="M20.9973 100C20.5667 100 20.1536 99.8292 19.8488 99.5251C19.544 99.2209 19.3722 98.8083 19.3712 98.3777V91.9989C19.3701 90.888 19.6744 89.7982 20.2508 88.8485L21.3894 86.9786C21.6633 86.5288 21.9586 86.0651 22.2577 85.5963C22.6347 84.9894 23.0431 84.3611 23.4126 83.7353C24.6878 81.5557 25.1829 79.0068 24.8162 76.5083L23.9227 70.308V70.1685C23.9608 68.5999 24.6085 67.1079 25.7285 66.009L32.5144 59.3237C33.0222 58.8214 33.3201 58.1449 33.3479 57.4312C33.3756 56.7174 33.1312 56.0199 32.664 55.4796C32.413 55.187 32.1038 54.9498 31.7561 54.7832C31.4084 54.6166 31.0299 54.5243 30.6445 54.512C30.2594 54.495 29.875 54.5589 29.5159 54.6993C29.1569 54.8398 28.8312 55.0538 28.5598 55.3275L19.3749 64.4583C19.0693 64.7614 18.6559 64.9309 18.2255 64.9295C17.795 64.9281 17.3827 64.7559 17.0791 64.4508C16.776 64.1452 16.6065 63.7317 16.6079 63.3013C16.6093 62.8708 16.7815 62.4585 17.0866 62.1549L26.2714 53.0241C26.8606 52.4385 27.5639 51.9801 28.3375 51.6775C29.1112 51.3748 29.9388 51.2344 30.7689 51.2648C31.5989 51.2966 32.4136 51.498 33.1627 51.8568C33.9118 52.2156 34.5795 52.7241 35.1245 53.3508C36.1328 54.5164 36.6604 56.0216 36.6004 57.5615C36.5404 59.1015 35.8974 60.5611 34.8015 61.6447L28.0156 68.33C27.5272 68.8091 27.2316 69.4508 27.185 70.1333L28.0408 76.0396C28.5139 79.2711 27.8731 82.5675 26.2237 85.3865C25.8253 86.0613 25.4106 86.7122 25.011 87.3406C24.7232 87.793 24.4405 88.234 24.1766 88.6701L23.0381 90.5387C22.7681 90.9768 22.6238 91.4806 22.6209 91.9952V98.3739C22.6209 98.8047 22.4499 99.218 22.1455 99.5228C21.8411 99.8277 21.4281 99.9993 20.9973 100Z" fill="#0e4f9d"/>
<path d="M1.62484 99.6155C1.41136 99.6155 1.19997 99.5734 1.00275 99.4917C0.805534 99.4099 0.626358 99.2901 0.475461 99.1391C0.324564 98.9881 0.204915 98.8089 0.123333 98.6116C0.0417513 98.4143 -0.000164621 98.2029 4.85871e-07 97.9894V66.9691C0.00314557 64.138 0.965742 61.3915 2.73069 59.1779L10.0192 47.6331C11.1421 45.8085 12.7936 44.3687 14.7543 43.505C15.6996 43.0988 16.6991 42.8325 17.7212 42.7146L18.9552 42.5714C19.1674 42.5466 19.3824 42.5639 19.5879 42.6224C19.7934 42.6808 19.9854 42.7792 20.1528 42.9119C20.3203 43.0446 20.46 43.209 20.564 43.3957C20.6679 43.5825 20.734 43.7879 20.7585 44.0002C20.783 44.2121 20.7656 44.4269 20.7071 44.6321C20.6486 44.8373 20.5503 45.029 20.4177 45.1962C20.2852 45.3634 20.121 45.5029 19.9345 45.6067C19.748 45.7104 19.543 45.7764 19.331 45.8009L18.0969 45.9442C17.3882 46.0262 16.6952 46.2112 16.0398 46.4933C14.6843 47.0982 13.5448 48.1009 12.7725 49.3685L5.38599 61.0754L5.3244 61.1508C3.99001 62.7966 3.26076 64.8504 3.25848 66.9691V97.9894C3.25848 98.2036 3.21617 98.4156 3.13398 98.6134C3.05179 98.8112 2.93135 98.9908 2.77955 99.1419C2.62776 99.293 2.4476 99.4126 2.24944 99.4939C2.05128 99.5751 1.83902 99.6165 1.62484 99.6155V99.6155Z" fill="#0e4f9d"/>
<path d="M47.8281 46.9784C47.4241 46.9777 47.0244 46.8966 46.652 46.74C46.2796 46.5834 45.9421 46.3543 45.6591 46.0661C44.0896 44.4664 36.2644 36.1461 36.2644 29.4407C36.2427 26.3503 37.4477 23.3775 39.6151 21.1746C41.7825 18.9716 44.7353 17.7183 47.8256 17.6898C50.9159 17.7183 53.8687 18.9716 56.0361 21.1746C58.2035 23.3775 59.4085 26.3503 59.3867 29.4407C59.3867 36.1474 51.5616 44.4664 49.9933 46.0661C49.7106 46.3537 49.3737 46.5824 49.002 46.739C48.6304 46.8956 48.2314 46.977 47.8281 46.9784V46.9784ZM47.8281 20.9407C45.601 20.9705 43.4764 21.8816 41.9196 23.4745C40.3628 25.0674 39.5005 27.2122 39.5217 29.4394C39.5217 33.8779 44.6739 40.3634 47.8281 43.6257C50.9885 40.3584 56.1345 33.8779 56.1345 29.4394C56.1553 27.2124 55.2929 25.0679 53.7361 23.4753C52.1794 21.8827 50.055 20.9718 47.8281 20.942V20.9407Z" fill="#0e4f9d"/>
<path d="M47.8292 33.2081C46.4822 33.2064 45.1909 32.6706 44.2385 31.7182C43.286 30.7657 42.7502 29.4744 42.7485 28.1275C42.7502 26.7805 43.286 25.4892 44.2385 24.5368C45.1909 23.5843 46.4822 23.0485 47.8292 23.0469C49.1762 23.0482 50.4677 23.5839 51.4202 24.5364C52.3727 25.4889 52.9084 26.7804 52.9098 28.1275C52.9081 29.4744 52.3723 30.7657 51.4199 31.7182C50.4674 32.6706 49.1761 33.2064 47.8292 33.2081ZM47.8292 26.2965C47.3442 26.2969 46.8792 26.4896 46.5362 26.8324C46.1932 27.1752 46.0001 27.64 45.9995 28.125C46.0001 28.6099 46.1932 29.0748 46.5362 29.4176C46.8792 29.7603 47.3442 29.9531 47.8292 29.9534C48.314 29.9531 48.7789 29.7603 49.1217 29.4175C49.4645 29.0747 49.6572 28.6098 49.6576 28.125C49.6572 27.6401 49.4645 27.1753 49.1217 26.8324C48.7789 26.4896 48.314 26.2969 47.8292 26.2965V26.2965Z" fill="#0e4f9d"/>
<path d="M48.2879 53.1586C45.3825 53.201 42.4853 52.8386 39.6799 52.0816C36.6727 51.1819 35.1484 49.8385 35.1484 48.088C35.1484 46.3375 36.6727 44.9954 39.6799 44.0944C39.8845 44.0331 40.0992 44.0128 40.3117 44.0345C40.5242 44.0562 40.7304 44.1196 40.9184 44.221C41.1064 44.3224 41.2725 44.4599 41.4074 44.6255C41.5423 44.7912 41.6432 44.9818 41.7043 45.1864C41.7656 45.3911 41.786 45.6058 41.7643 45.8183C41.7425 46.0308 41.6792 46.2369 41.5778 46.4249C41.4763 46.6129 41.3389 46.7791 41.1732 46.9139C41.0076 47.0488 40.817 47.1497 40.6123 47.2109C39.8963 47.3948 39.2141 47.6917 38.5916 48.0905C39.5303 48.7654 42.8265 49.9039 48.2879 49.9039C53.7493 49.9039 57.0505 48.7641 57.9842 48.0893C57.0442 47.5191 56.006 47.1296 54.923 46.9407C54.7148 46.8931 54.5181 46.805 54.344 46.6813C54.17 46.5576 54.022 46.4009 53.9086 46.22C53.7951 46.0391 53.7184 45.8376 53.6829 45.627C53.6474 45.4165 53.6537 45.201 53.7015 44.9929C53.7491 44.7848 53.8373 44.588 53.9609 44.414C54.0846 44.2399 54.2414 44.0919 54.4223 43.9785C54.6032 43.865 54.8046 43.7884 55.0152 43.7528C55.2257 43.7173 55.4412 43.7236 55.6493 43.7715C59.4771 44.6511 61.4186 46.1038 61.4186 48.088C61.4186 49.8385 59.888 51.1819 56.8859 52.0816C54.0837 52.8376 51.19 53.2001 48.2879 53.1586Z" fill="#0e4f9d"/>
</g>
<defs>
<clipPath id="clip0_662_3322">
<rect width="76.5309" height="100" fill="white"/>
</clipPath>
</defs>
</svg>
