<svg width="82" height="100" viewBox="0 0 82 100" fill="none" xmlns="http://www.w3.org/2000/svg">
<g clip-path="url(#clip0_662_3334)">
<path d="M79.1341 35.2956C76.8875 34.1384 73.416 34.8289 70.291 37.0563C69.6176 37.5327 68.985 38.0643 68.3998 38.6456V5.61705C68.3998 4.12494 67.8071 2.69393 66.752 1.63885C65.6969 0.583767 64.2659 -0.00897217 62.7738 -0.00897217H17.6135C16.1214 -0.00897217 14.6904 0.583767 13.6353 1.63885C12.5802 2.69393 11.9875 4.12494 11.9875 5.61705V22.4312C10.6219 21.1563 8.81042 20.4686 6.94288 20.516C5.07533 20.5634 3.30105 21.3422 2.00196 22.6847C0.70286 24.0272 -0.0171972 25.8261 -0.00321817 27.6942C0.0107609 29.5623 0.75766 31.3502 2.0767 32.6731L8.37017 38.9666C7.13526 39.2574 6.00059 39.8732 5.08366 40.75C4.16674 41.6269 3.50093 42.7329 3.1552 43.9536C2.80947 45.1743 2.79638 46.4652 3.11731 47.6927C3.43825 48.9201 4.08152 50.0394 4.98049 50.9347L8.35099 54.3064C7.11863 54.6004 5.9871 55.2181 5.0733 56.0956C4.1595 56.9732 3.49657 58.0788 3.153 59.2982C2.80942 60.5177 2.79766 61.8068 3.11893 63.0323C3.4402 64.2578 4.08285 65.3753 4.98049 66.2694L10.2511 71.54C8.91804 71.6898 7.65443 72.2131 6.60574 73.0496C5.55704 73.886 4.76589 75.0017 4.32338 76.268C3.88087 77.5343 3.805 78.8999 4.10449 80.2075C4.40397 81.515 5.06663 82.7114 6.01619 83.6589L15.3349 92.9777C15.9971 93.6398 16.7832 94.1649 17.6483 94.5232C18.5135 94.8815 19.4407 95.0659 20.3771 95.0658C21.3135 95.0658 22.2407 94.8813 23.1057 94.5229C23.9708 94.1645 24.7569 93.6392 25.419 92.977C26.081 92.3149 26.6062 91.5288 26.9645 90.6636C27.3228 89.7985 27.5071 88.8713 27.5071 87.9349C27.507 86.9985 27.3225 86.0713 26.9642 85.2062C26.6058 84.3411 26.0805 83.5551 25.4183 82.893L20.1477 77.6225C21.7495 77.4452 23.2431 76.7277 24.3826 75.5881V75.5881C25.718 74.2501 26.4679 72.4369 26.4679 70.5465C26.4679 68.6561 25.718 66.8429 24.3826 65.5048L21.0172 62.133C22.2935 61.8308 23.4608 61.1801 24.389 60.2534V60.2534C25.7225 58.9141 26.4712 57.1011 26.4712 55.2111C26.4712 53.3211 25.7225 51.5081 24.389 50.1688L15.0703 40.85L15.0498 40.8308C15.2145 40.5724 15.3031 40.2729 15.3055 39.9665V26.877C15.3746 26.6069 15.3746 26.3237 15.3055 26.0536V5.61705C15.3062 5.00346 15.5503 4.41519 15.9841 3.98131C16.418 3.54743 17.0063 3.30339 17.6199 3.30271H26.4988C26.9271 5.46361 28.4909 10.5986 33.7295 11.2533L33.8318 11.2661H46.3624C48.3017 11.2328 50.1579 10.4731 51.564 9.13715C53.0844 7.56791 53.9628 5.48674 54.0266 3.30271H62.7904C63.4039 3.30372 63.992 3.54788 64.4258 3.98168C64.8596 4.41549 65.1038 5.00356 65.1048 5.61705V59.9593L65.0856 60.6971V60.7393C65.0773 61.2791 64.9502 61.8104 64.7133 62.2955C64.4764 62.7806 64.1355 63.2075 63.7149 63.5459L61.1448 65.6889C58.8145 67.5872 56.9311 69.9757 55.6286 72.6845C54.326 75.3932 53.6363 78.3557 53.6085 81.3612V91.1019C53.5663 91.1019 53.5254 91.0891 53.4806 91.0891H27.9897C27.5512 91.0891 27.1307 91.2633 26.8206 91.5734C26.5106 91.8834 26.3364 92.3039 26.3364 92.7424C26.3364 93.1809 26.5106 93.6014 26.8206 93.9114C27.1307 94.2215 27.5512 94.3957 27.9897 94.3957H53.4717C53.5152 94.3957 53.5561 94.3867 53.5996 94.3829V98.3467C53.5996 98.7852 53.7737 99.2057 54.0838 99.5157C54.3938 99.8258 54.8144 100 55.2528 100C55.6913 100 56.1118 99.8258 56.4219 99.5157C56.732 99.2057 56.9061 98.7852 56.9061 98.3467V81.3676C56.9343 78.847 57.5175 76.3636 58.6143 74.0939C59.7111 71.8243 61.2945 69.8242 63.252 68.236L65.8208 66.0968C66.5791 65.4772 67.1986 64.7051 67.6391 63.8306C68.0797 62.9561 68.3315 61.9987 68.3781 61.0206C68.3945 60.9316 68.4035 60.8413 68.405 60.7508V60.0105L68.7885 45.0312V44.989C68.7866 44.8411 68.7951 44.6932 68.8141 44.5466C69.0187 43.5556 69.4267 42.6179 70.0124 41.7927C70.598 40.9676 71.3486 40.273 72.2166 39.7529C74.49 38.1316 76.7008 37.7621 77.6252 38.239C77.7966 38.3273 78.317 38.5958 78.317 39.9102V98.3467C78.317 98.7852 78.4912 99.2057 78.8012 99.5157C79.1113 99.8258 79.5318 100 79.9703 100C80.4088 100 80.8293 99.8258 81.1393 99.5157C81.4494 99.2057 81.6236 98.7852 81.6236 98.3467V39.9064C81.7012 38.9791 81.5071 38.0493 81.065 37.2305C80.6229 36.4117 79.952 35.7394 79.1341 35.2956V35.2956ZM3.31059 27.6237C3.30866 26.8674 3.53153 26.1275 3.95086 25.498C4.3702 24.8685 4.96712 24.3778 5.66584 24.0882C6.36456 23.7986 7.13356 23.7231 7.87527 23.8713C8.61697 24.0195 9.29792 24.3848 9.83167 24.9207L11.9964 27.0842V37.8989L4.42429 30.3268C4.06912 29.9734 3.78749 29.5532 3.59567 29.0903C3.40386 28.6274 3.30567 28.1312 3.30676 27.6301L3.31059 27.6237ZM24.1985 87.936C24.197 88.6908 23.9722 89.4283 23.5523 90.0556C23.1325 90.683 22.5364 91.172 21.8391 91.4611C21.1418 91.7503 20.3746 91.8266 19.634 91.6806C18.8935 91.5345 18.2127 91.1726 17.6774 90.6403L8.35866 81.3216C7.6416 80.6045 7.23876 79.632 7.23876 78.6179C7.23876 77.6038 7.6416 76.6313 8.35866 75.9142C9.07572 75.1971 10.0483 74.7943 11.0624 74.7943C12.0764 74.7943 13.049 75.1971 13.766 75.9142L23.0848 85.2329C23.44 85.5874 23.7214 86.0088 23.9126 86.4728C24.1037 86.9368 24.2009 87.4342 24.1985 87.936V87.936ZM23.1641 70.5465C23.1662 71.0485 23.0689 71.5459 22.8778 72.0101C22.6866 72.4742 22.4054 72.8959 22.0504 73.2508V73.2508C21.3318 73.9645 20.3601 74.365 19.3473 74.365C18.3345 74.365 17.3629 73.9645 16.6443 73.2508L7.32552 63.9321C6.66464 63.2704 6.2693 62.3894 6.21434 61.4558C6.15937 60.5223 6.44859 59.6009 7.02726 58.8663C7.60593 58.1316 8.43389 57.6347 9.35436 57.4694C10.2748 57.3042 11.2239 57.4822 12.022 57.9697L14.3056 60.2547C14.5946 60.5398 14.9073 60.7999 15.2403 61.0321L22.0529 67.8447C22.4074 68.1993 22.6881 68.6207 22.8788 69.0844C23.0695 69.5481 23.1665 70.0451 23.1641 70.5465V70.5465ZM23.1641 55.2117C23.1657 55.7134 23.0681 56.2104 22.8767 56.6741C22.6853 57.1378 22.4041 57.559 22.0491 57.9135V57.9135C21.4407 58.5169 20.6479 58.8993 19.7969 58.9996C18.946 59.1 18.0859 58.9125 17.3539 58.4671L15.069 56.1835C14.7807 55.898 14.4685 55.6379 14.1356 55.4061L7.32296 48.5935C6.65967 47.9272 6.26515 47.0398 6.21479 46.101C6.16442 45.1622 6.46175 44.2377 7.04995 43.5043C7.63816 42.7709 8.47598 42.2799 9.40333 42.1252C10.3307 41.9705 11.2825 42.1629 12.077 42.6657L16.487 47.0757C16.6155 47.2017 16.7642 47.3055 16.9268 47.3826L22.0478 52.5036C22.404 52.8585 22.686 53.2807 22.8777 53.7456C23.0693 54.2105 23.1666 54.7089 23.1641 55.2117V55.2117ZM49.2752 6.74353C48.4784 7.48703 47.4412 7.91987 46.3522 7.96336H34.0389C33.2467 7.82599 32.5043 7.48352 31.8855 6.97001C31.2668 6.45651 30.7934 5.7899 30.5124 5.03655C30.2511 4.4804 30.0418 3.90127 29.8872 3.30654H50.6907C50.634 4.58219 50.1333 5.79792 49.2752 6.74353V6.74353Z" fill="#0e4f9d"/>
<path d="M59.8826 37.2583C59.8826 33.3638 58.7278 29.5567 56.5641 26.3185C54.4004 23.0804 51.3251 20.5565 47.727 19.0661C44.129 17.5758 40.1697 17.1858 36.35 17.9456C32.5303 18.7054 29.0217 20.5808 26.2679 23.3346C23.514 26.0885 21.6386 29.5971 20.8789 33.4168C20.1191 37.2365 20.509 41.1957 21.9994 44.7938C23.4898 48.3918 26.0136 51.4672 29.2518 53.6308C32.49 55.7945 36.297 56.9494 40.1916 56.9494C45.4126 56.945 50.4186 54.869 54.1104 51.1771C57.8022 47.4853 59.8782 42.4794 59.8826 37.2583V37.2583ZM40.1916 53.6377C36.952 53.6377 33.7852 52.6771 31.0917 50.8773C28.3981 49.0775 26.2987 46.5194 25.059 43.5264C23.8193 40.5335 23.4949 37.2401 24.1269 34.0628C24.7589 30.8856 26.3189 27.967 28.6096 25.6763C30.9003 23.3856 33.8188 21.8256 36.9961 21.1936C40.1734 20.5616 43.4668 20.886 46.4597 22.1257C49.4526 23.3654 52.0107 25.4648 53.8105 28.1584C55.6103 30.852 56.571 34.0188 56.571 37.2583C56.5662 41.6004 54.8396 45.7634 51.7698 48.8342C48.6999 51.905 44.5375 53.6329 40.1954 53.639L40.1916 53.6377Z" fill="#0e4f9d"/>
<path d="M42.0546 35.3276H38.9283C38.5854 35.3352 38.2444 35.2743 37.9254 35.1483C37.6063 35.0224 37.3156 34.834 37.0704 34.5941C36.8252 34.3543 36.6303 34.0679 36.4973 33.7517C36.3643 33.4356 36.2958 33.096 36.2958 32.753C36.2958 32.41 36.3643 32.0705 36.4973 31.7543C36.6303 31.4381 36.8252 31.1517 37.0704 30.9119C37.3156 30.6721 37.6063 30.4837 37.9254 30.3577C38.2444 30.2318 38.5854 30.1708 38.9283 30.1785H43.4905C43.628 30.1753 43.7646 30.2008 43.8916 30.2534C44.0187 30.306 44.1334 30.3845 44.2285 30.4838C44.3235 30.5832 44.3968 30.7013 44.4436 30.8306C44.4905 30.9598 44.5099 31.0975 44.5006 31.2346C44.4871 31.7176 44.6641 32.1866 44.9934 32.5402C45.3227 32.8938 45.7779 33.1036 46.2606 33.1245C46.7433 33.1453 47.2149 32.9754 47.5734 32.6514C47.9319 32.3275 48.1486 31.8756 48.1767 31.3932C48.2298 30.1503 47.7871 28.9371 46.946 28.0205C46.1048 27.1039 44.9342 26.5587 43.6913 26.5049C43.6248 26.5049 43.5634 26.5049 43.4905 26.5049H42.4216V25.4015C42.4216 24.9138 42.2279 24.4461 41.883 24.1013C41.5382 23.7565 41.0705 23.5628 40.5829 23.5628C40.0952 23.5628 39.6276 23.7565 39.2827 24.1013C38.9379 24.4461 38.7442 24.9138 38.7442 25.4015V26.5101C37.1019 26.557 35.5442 27.2486 34.4079 28.4352C33.2716 29.6219 32.6481 31.2081 32.6723 32.8509C32.6965 34.4936 33.3664 36.0608 34.5372 37.2134C35.7079 38.3661 37.2854 39.0115 38.9283 39.0101H42.0546C42.7443 39.0362 43.3971 39.3286 43.8758 39.8258C44.3545 40.3231 44.622 40.9864 44.622 41.6767C44.622 42.3669 44.3545 43.0303 43.8758 43.5275C43.3971 44.0247 42.7443 44.3171 42.0546 44.3433H37.4182C37.2678 44.3401 37.1198 44.3045 36.9844 44.2389C36.8489 44.1734 36.7291 44.0794 36.6333 43.9634C36.5374 43.8474 36.4677 43.7121 36.4288 43.5667C36.39 43.4213 36.3829 43.2692 36.4081 43.1209C36.4169 42.6332 36.2317 42.1621 35.8931 41.811C35.5545 41.46 35.0903 41.2578 34.6027 41.249C34.115 41.2401 33.6439 41.4254 33.2928 41.764C32.9417 42.1026 32.7396 42.5668 32.7307 43.0544V43.2449C32.7085 44.4884 33.1808 45.6899 34.0439 46.5854C34.9071 47.4809 36.0904 47.9971 37.3339 48.0206H38.7404V49.1241C38.7404 49.6118 38.9341 50.0794 39.2789 50.4243C39.6237 50.7691 40.0914 50.9628 40.579 50.9628C41.0667 50.9628 41.5344 50.7691 41.8792 50.4243C42.224 50.0794 42.4177 49.6118 42.4177 49.1241V48.0079C44.0478 47.8879 45.5687 47.1437 46.6637 45.9303C47.7588 44.7169 48.3436 43.1279 48.2963 41.4941C48.249 39.8604 47.5733 38.3078 46.4098 37.1598C45.2464 36.0118 43.685 35.3569 42.0508 35.3314L42.0546 35.3276Z" fill="#0e4f9d"/>
</g>
<defs>
<clipPath id="clip0_662_3334">
<rect width="81.617" height="100" fill="white"/>
</clipPath>
</defs>
</svg>
