<svg width="133" height="100" viewBox="0 0 133 100" fill="none" xmlns="http://www.w3.org/2000/svg">
<g clip-path="url(#clip0_662_3340)">
<path d="M32.6474 59.5694C40.4729 59.489 47.9471 56.3082 53.4306 50.7246C58.914 45.1409 61.959 37.6104 61.8976 29.7847C61.9703 25.8975 61.2675 22.0348 59.8301 18.4223C58.3928 14.8098 56.2499 11.5201 53.5265 8.74536C50.8032 5.97062 47.5541 3.76653 43.9692 2.26192C40.3842 0.757312 36.5353 -0.0176392 32.6474 -0.0176392C28.7595 -0.0176392 24.9106 0.757312 21.3257 2.26192C17.7407 3.76653 14.4916 5.97062 11.7683 8.74536C9.04494 11.5201 6.90199 14.8098 5.46468 18.4223C4.02736 22.0348 3.32451 25.8975 3.3972 29.7847C3.33585 37.6104 6.38084 45.1409 11.8643 50.7246C17.3477 56.3082 24.8219 59.489 32.6474 59.5694V59.5694ZM32.6474 3.55848C39.5295 3.63776 46.0992 6.44335 50.9155 11.3599C55.7318 16.2764 58.4016 22.9025 58.3392 29.7847C58.4264 33.2137 57.8263 36.6254 56.5744 39.8188C55.3224 43.0123 53.4439 45.9228 51.0495 48.3788C48.6551 50.8349 45.7933 52.7868 42.6328 54.1196C39.4722 55.4524 36.0768 56.139 32.6468 56.139C29.2167 56.139 25.8213 55.4524 22.6608 54.1196C19.5002 52.7868 16.6384 50.8349 14.244 48.3788C11.8496 45.9228 9.9711 43.0123 8.71915 39.8188C7.4672 36.6254 6.86716 33.2137 6.95438 29.7847C6.89197 22.9022 9.56188 16.276 14.3785 11.3594C19.1951 6.44287 25.7651 3.63743 32.6474 3.55848V3.55848Z" fill="#0e4f9d"/>
<path d="M129.433 52.2095L104.451 28.0432C102.69 26.3284 100.329 25.3694 97.8711 25.3708H66.7451C66.5115 25.3708 66.2802 25.4168 66.0645 25.5062C65.8487 25.5956 65.6526 25.7266 65.4874 25.8918C65.3223 26.0569 65.1913 26.253 65.1019 26.4688C65.0125 26.6846 64.9665 26.9159 64.9665 27.1494C64.9665 27.383 65.0125 27.6143 65.1019 27.8301C65.1913 28.0459 65.3223 28.2419 65.4874 28.4071C65.6526 28.5722 65.8487 28.7032 66.0645 28.7926C66.2802 28.882 66.5115 28.928 66.7451 28.928H71.0669V62.9488C71.0669 63.4207 71.2544 63.8733 71.588 64.2069C71.9217 64.5406 72.3743 64.7281 72.8461 64.7281C73.318 64.7281 73.7706 64.5406 74.1042 64.2069C74.4379 63.8733 74.6254 63.4207 74.6254 62.9488V28.9267H97.8711C99.4056 28.9277 100.879 29.5284 101.977 30.6005L103.55 32.1208H90.0522C85.9528 32.1208 82.6182 35.0374 82.6182 38.6214V54.9599C82.6182 58.5401 85.9528 61.4605 90.0522 61.4605H128.839V76.9628C128.858 78.5696 128.238 80.1183 127.117 81.269C125.995 82.4197 124.463 83.0783 122.856 83.1002H118.695C118.55 83.1022 118.407 83.1215 118.267 83.1578C117.909 79.4933 116.203 76.0924 113.478 73.6158C110.754 71.1392 107.206 69.7637 103.524 69.7566C99.8426 69.7494 96.2895 71.1111 93.5555 73.577C90.8214 76.043 89.1016 79.4372 88.7301 83.1002H62.4706C62.0988 79.4431 60.383 76.0541 57.6554 73.5898C54.9279 71.1254 51.3827 69.7611 47.7068 69.7611C44.0308 69.7611 40.4857 71.1254 37.7581 73.5898C35.0305 76.0541 33.3147 79.4431 32.9429 83.1002H31.1311C29.5243 83.0783 27.9918 82.4197 26.8702 81.269C25.7485 80.1183 25.1292 78.5696 25.1483 76.9628V62.9488C25.1483 62.477 24.9609 62.0244 24.6272 61.6907C24.2935 61.3571 23.841 61.1696 23.3691 61.1696C22.8972 61.1696 22.4447 61.3571 22.111 61.6907C21.7773 62.0244 21.5899 62.477 21.5899 62.9488V76.9628C21.5732 79.5119 22.5681 81.9637 24.3565 83.7803C26.1449 85.597 28.5807 86.6303 31.1298 86.6536H32.9404C33.3777 90.4546 35.2341 93.9504 38.138 96.4416H3.33342C2.86154 96.4416 2.409 96.629 2.07533 96.9627C1.74165 97.2964 1.5542 97.7489 1.5542 98.2208C1.5542 98.6927 1.74165 99.1452 2.07533 99.4789C2.409 99.8126 2.86154 100 3.33342 100H103.492C107.17 99.9684 110.708 98.585 113.432 96.1132C116.157 93.6414 117.876 90.2539 118.264 86.596C118.404 86.6328 118.548 86.6521 118.692 86.6536H122.853C125.403 86.6306 127.839 85.5975 129.627 83.7808C131.416 81.9641 132.411 79.5121 132.394 76.9628V59.228C132.394 57.9197 132.132 56.6248 131.623 55.4194C131.115 54.214 130.37 53.1227 129.433 52.2095V52.2095ZM36.3927 84.875C36.4423 82.6484 37.1478 80.486 38.421 78.6587C39.6941 76.8314 41.4782 75.4204 43.5497 74.6026C45.6213 73.7848 47.888 73.5965 50.0661 74.0614C52.2442 74.5262 54.2366 75.6234 55.7938 77.2156C57.351 78.8079 58.4036 80.8242 58.8199 83.0121C59.2362 85.1999 58.9975 87.462 58.1338 89.5148C57.2702 91.5676 55.8199 93.3199 53.9647 94.552C52.1095 95.7842 49.9319 96.4415 47.7048 96.4416C44.6721 96.4041 41.778 95.1654 39.6574 92.9971C37.5367 90.8287 36.3627 87.9078 36.3927 84.875V84.875ZM57.2704 96.4416C60.1746 93.9506 62.0311 90.4547 62.468 86.6536H88.7275C89.1655 90.4544 91.0217 93.95 93.9252 96.4416H57.2704ZM103.491 96.4416C101.192 96.4929 98.9298 95.8581 96.9933 94.6182C95.0568 93.3782 93.5336 91.5894 92.6183 89.48C91.7029 87.3706 91.4368 85.0363 91.854 82.775C92.2711 80.5137 93.3526 78.4279 94.9604 76.784C96.5682 75.1401 98.6293 74.0125 100.881 73.5451C103.132 73.0778 105.472 73.2919 107.601 74.1601C109.73 75.0283 111.553 76.5113 112.835 78.4197C114.118 80.3282 114.803 82.5755 114.803 84.875C114.833 87.9078 113.659 90.8289 111.539 92.9974C109.419 95.166 106.525 96.4051 103.492 96.4429L103.491 96.4416ZM86.1766 54.9599V38.6201C86.1766 37.0244 87.9514 35.6792 90.0522 35.6792H106.718C106.866 35.6777 107.014 35.657 107.157 35.6179L126.959 54.7668C127.832 55.6194 128.434 56.7104 128.69 57.9033H90.0522C87.9514 57.9033 86.1766 56.5543 86.1766 54.9599Z" fill="#0e4f9d"/>
<path d="M47.7062 87.1369C48.9307 87.1369 49.9233 86.1248 49.9233 84.8762C49.9233 83.6277 48.9307 82.6156 47.7062 82.6156C46.4817 82.6156 45.489 83.6277 45.489 84.8762C45.489 86.1248 46.4817 87.1369 47.7062 87.1369Z" fill="#0e4f9d"/>
<path d="M103.492 87.1369C104.716 87.1369 105.709 86.1248 105.709 84.8762C105.709 83.6277 104.716 82.6156 103.492 82.6156C102.267 82.6156 101.275 83.6277 101.275 84.8762C101.275 86.1248 102.267 87.1369 103.492 87.1369Z" fill="#0e4f9d"/>
<path d="M94.0262 63.7902H84.5949C83.5038 63.7902 82.6194 64.6746 82.6194 65.7657C82.6194 66.8567 83.5038 67.7412 84.5949 67.7412H94.0262C95.1172 67.7412 96.0017 66.8567 96.0017 65.7657C96.0017 64.6746 95.1172 63.7902 94.0262 63.7902Z" fill="#0e4f9d"/>
<path d="M16.0533 80.7667C16.5252 80.7667 16.9777 80.5792 17.3114 80.2456C17.6451 79.9119 17.8325 79.4593 17.8325 78.9875C17.8325 78.5156 17.6451 78.063 17.3114 77.7294C16.9777 77.3957 16.5252 77.2082 16.0533 77.2082H1.77727C1.30539 77.2082 0.852843 77.3957 0.519173 77.7294C0.185503 78.063 -0.00195313 78.5156 -0.00195312 78.9875C-0.00195313 79.4593 0.185503 79.9119 0.519173 80.2456C0.852843 80.5792 1.30539 80.7667 1.77727 80.7667H16.0533Z" fill="#0e4f9d"/>
<path d="M16.0534 69.7512H7.82791C7.59435 69.7512 7.36306 69.7972 7.14727 69.8866C6.93148 69.976 6.73542 70.107 6.57027 70.2721C6.40511 70.4373 6.2741 70.6334 6.18472 70.8492C6.09534 71.0649 6.04932 71.2962 6.04932 71.5298C6.04932 71.7634 6.09534 71.9946 6.18472 72.2104C6.2741 72.4262 6.40511 72.6223 6.57027 72.7874C6.73542 72.9526 6.93148 73.0836 7.14727 73.173C7.36306 73.2624 7.59435 73.3084 7.82791 73.3084H16.0534C16.287 73.3084 16.5183 73.2624 16.7341 73.173C16.9498 73.0836 17.1459 72.9526 17.3111 72.7874C17.4762 72.6223 17.6072 72.4262 17.6966 72.2104C17.786 71.9946 17.832 71.7634 17.832 71.5298C17.832 71.2962 17.786 71.0649 17.6966 70.8492C17.6072 70.6334 17.4762 70.4373 17.3111 70.2721C17.1459 70.107 16.9498 69.976 16.7341 69.8866C16.5183 69.7972 16.287 69.7512 16.0534 69.7512Z" fill="#0e4f9d"/>
<path d="M16.0534 62.2929H12.3849C11.9131 62.2929 11.4605 62.4803 11.1268 62.814C10.7932 63.1477 10.6057 63.6002 10.6057 64.0721C10.6057 64.544 10.7932 64.9966 11.1268 65.3302C11.4605 65.6639 11.9131 65.8513 12.3849 65.8513H16.0534C16.5252 65.8513 16.9778 65.6639 17.3115 65.3302C17.6451 64.9966 17.8326 64.544 17.8326 64.0721C17.8326 63.6002 17.6451 63.1477 17.3115 62.814C16.9778 62.4803 16.5252 62.2929 16.0534 62.2929V62.2929Z" fill="#0e4f9d"/>
<path d="M32.1463 41.3487C32.5872 41.3473 33.0234 41.2585 33.4296 41.0873C33.8359 40.9161 34.2042 40.6659 34.5131 40.3514C36.2303 38.6022 44.7908 29.5034 44.7908 22.164C44.8246 20.4821 44.5226 18.8104 43.9023 17.2466C43.2821 15.6829 42.3561 14.2587 41.1786 13.0572C40.0011 11.8558 38.5957 10.9014 37.0448 10.2498C35.4939 9.59824 33.8285 9.26263 32.1463 9.26263C30.4641 9.26263 28.7987 9.59824 27.2478 10.2498C25.6969 10.9014 24.2915 11.8558 23.114 13.0572C21.9365 14.2587 21.0105 15.6829 20.3903 17.2466C19.77 18.8104 19.468 20.4821 19.5018 22.164C19.5018 29.5072 28.0687 38.6035 29.7783 40.3514C30.0873 40.6661 30.4558 40.9163 30.8623 41.0875C31.2688 41.2587 31.7052 41.3475 32.1463 41.3487V41.3487ZM32.1463 12.8644C34.5831 12.8961 36.9079 13.8927 38.6111 15.6357C40.3143 17.3787 41.2569 19.7259 41.2323 22.1627C41.2323 27.0216 35.6063 34.1142 32.1463 37.6829C28.694 34.1155 23.059 27.0228 23.059 22.1627C23.0344 19.7256 23.9772 17.3783 25.6807 15.6352C27.3842 13.8922 29.7093 12.8958 32.1463 12.8644V12.8644Z" fill="#0e4f9d"/>
<path d="M37.7034 20.7255C37.7037 19.6261 37.3779 18.5514 36.7673 17.6372C36.1567 16.723 35.2887 16.0103 34.2731 15.5895C33.2575 15.1686 32.1399 15.0583 31.0616 15.2726C29.9833 15.487 28.9928 16.0162 28.2153 16.7935C27.4379 17.5708 26.9084 18.5612 26.6938 19.6394C26.4792 20.7176 26.5892 21.8353 27.0099 22.851C27.4305 23.8667 28.143 24.7349 29.057 25.3457C29.9711 25.9565 31.0458 26.2825 32.1452 26.2825C33.6186 26.2808 35.0312 25.6948 36.0731 24.6531C37.1151 23.6114 37.7014 22.1989 37.7034 20.7255V20.7255ZM30.1454 20.7255C30.1454 20.33 30.2627 19.9434 30.4824 19.6145C30.7021 19.2856 31.0145 19.0293 31.3799 18.8779C31.7453 18.7266 32.1474 18.687 32.5353 18.7641C32.9232 18.8413 33.2796 19.0318 33.5592 19.3115C33.8389 19.5911 34.0294 19.9475 34.1065 20.3354C34.1837 20.7233 34.1441 21.1254 33.9927 21.4908C33.8414 21.8562 33.5851 22.1685 33.2562 22.3883C32.9273 22.608 32.5407 22.7253 32.1452 22.7253C31.6152 22.7243 31.1073 22.5132 30.7327 22.1384C30.3581 21.7635 30.1473 21.2555 30.1467 20.7255H30.1454Z" fill="#0e4f9d"/>
<path d="M23.2305 46.9262C29.4095 48.4971 35.8833 48.4971 42.0623 46.9262C45.3535 45.9416 47.0209 44.4725 47.0209 42.5583C47.0209 40.3846 44.8983 38.7966 40.7108 37.835C40.4831 37.7827 40.2473 37.7758 40.0169 37.8146C39.7866 37.8534 39.5661 37.9372 39.3681 38.0612C39.1701 38.1852 38.9985 38.347 38.863 38.5374C38.7276 38.7277 38.6309 38.9429 38.5786 39.1706C38.5263 39.3983 38.5194 39.634 38.5582 39.8644C38.597 40.0948 38.6808 40.3152 38.8048 40.5132C39.0553 40.9131 39.4543 41.1971 39.9142 41.3027C41.097 41.5106 42.2306 41.9377 43.2565 42.5622C42.2336 43.3012 38.6253 44.5466 32.6438 44.5466C26.6623 44.5466 23.0629 43.3012 22.0311 42.5634C22.713 42.1275 23.4596 41.8022 24.2431 41.5993C24.6952 41.4637 25.0748 41.154 25.2986 40.7385C25.5223 40.3229 25.5718 39.8355 25.4361 39.3835C25.3005 38.9314 24.9908 38.5518 24.5752 38.328C24.1597 38.1043 23.6723 38.0548 23.2202 38.1905C19.9303 39.175 18.2629 40.6442 18.2629 42.5596C18.2629 44.475 19.9405 45.9416 23.2305 46.9262Z" fill="#0e4f9d"/>
</g>
<defs>
<clipPath id="clip0_662_3340">
<rect width="132.394" height="100" fill="white"/>
</clipPath>
</defs>
</svg>
